# Blender v2.77 (sub 0) OBJ File: 'crosshair.obj'
# www.blender.org
mtllib water7.mtl
o Sphere001.002_Sphere001.001
v -0.000947 0.002477 -0.000195
v 0.000499 0.002288 0.000808
v -0.001830 0.002417 0.001045
v 0.000711 0.001860 -0.000936
v -0.002680 0.001393 0.002264
v -0.002830 0.001409 -0.001148
v -0.000852 0.001680 -0.001740
v -0.000176 0.001615 0.002744
v 0.001865 0.000813 0.001880
v -0.003970 0.000222 0.001086
v 0.002336 0.000264 -0.000283
v -0.002046 -0.000004 0.003464
v 0.000735 0.000232 -0.002331
v -0.001366 0.000081 -0.002754
v -0.004014 -0.000907 -0.000495
v -0.000366 -0.000149 0.003722
v 0.000866 -0.001329 0.003327
v -0.003058 -0.001699 0.002751
v 0.001607 -0.001186 -0.001784
v -0.002805 -0.001254 -0.002149
v 0.002103 -0.001473 0.001904
v 0.002154 -0.002440 0.000333
v -0.000219 -0.002842 -0.002142
v -0.003579 -0.002422 0.001105
v -0.001132 -0.002483 0.003312
v -0.001711 -0.002378 -0.002257
v -0.002712 -0.002924 -0.001125
v 0.001299 -0.003005 -0.000736
v -0.002597 -0.003515 0.000975
v 0.000133 -0.003470 0.002252
v -0.000610 -0.004105 0.000083
vt 0.1450 0.9400
vt 0.1500 0.9300
vt 0.1500 0.9400
vt 0.7600 0.9000
vt 0.7650 0.8900
vt 0.7678 0.8943
vt 0.3950 0.8900
vt 0.3950 0.8800
vt 0.4000 0.8800
vt 0.5350 0.8700
vt 0.5350 0.8600
vt 0.5400 0.8600
vt 0.6400 0.8600
vt 0.6400 0.8500
vt 0.6450 0.8500
vt 0.1350 0.8500
vt 0.1350 0.8400
vt 0.1400 0.8400
vt 0.0450 0.8300
vt 0.0450 0.8200
vt 0.0500 0.8200
vt 0.3076 0.7800
vt 0.3050 0.7700
vt 0.3100 0.7700
vt 0.7900 0.7700
vt 0.7900 0.7600
vt 0.7950 0.7700
vt 0.8500 0.7700
vt 0.8500 0.7600
vt 0.8550 0.7700
vt 0.1950 0.7400
vt 0.2000 0.7400
vt 0.2000 0.7500
vt 0.3100 0.7247
vt 0.3150 0.7300
vt 0.3150 0.7400
vt 0.4900 0.7400
vt 0.4950 0.7300
vt 0.4950 0.7400
vt 0.0150 0.7300
vt 0.0150 0.7200
vt 0.0200 0.7300
vt 0.4050 0.7200
vt 0.4050 0.7100
vt 0.4100 0.7100
vt 0.5150 0.6800
vt 0.5200 0.6800
vt 0.5200 0.6900
vt 0.0600 0.6700
vt 0.0600 0.6600
vt 0.0650 0.6700
vt 0.1350 0.6600
vt 0.1350 0.6500
vt 0.1400 0.6600
vt 0.7700 0.6600
vt 0.7750 0.6500
vt 0.7750 0.6600
vt 0.1400 0.6200
vt 0.1450 0.6100
vt 0.1450 0.6200
vt 0.4150 0.5700
vt 0.4200 0.5700
vt 0.4200 0.5800
vt 0.6700 0.5800
vt 0.6750 0.5700
vt 0.6750 0.5800
vt 0.6800 0.5800
vt 0.6800 0.5700
vt 0.6850 0.5700
vt 0.9400 0.5800
vt 0.9450 0.5700
vt 0.9450 0.5800
vt 0.8950 0.5600
vt 0.9000 0.5600
vt 0.9000 0.5700
vt 0.1950 0.5500
vt 0.2000 0.5500
vt 0.2000 0.5600
vt 0.3550 0.5300
vt 0.3550 0.5200
vt 0.3600 0.5200
vt 0.2650 0.5100
vt 0.2680 0.4939
vt 0.2700 0.5100
vt 0.2942 0.5000
vt 0.2950 0.4900
vt 0.3000 0.4900
vt 0.0350 0.4800
vt 0.0400 0.4800
vt 0.0400 0.4900
vt 0.5050 0.4700
vt 0.5083 0.4667
vt 0.5100 0.4800
vt 0.5750 0.4700
vt 0.5750 0.4600
vt 0.5800 0.4700
vt 0.4850 0.4600
vt 0.4850 0.4500
vt 0.4900 0.4500
vt 0.5500 0.4500
vt 0.5550 0.4500
vt 0.5550 0.4600
vt 0.8750 0.4500
vt 0.8750 0.4400
vt 0.8800 0.4500
vt 0.9850 0.4400
vt 0.9900 0.4400
vt 0.9870 0.4559
vt 0.0850 0.4300
vt 0.0900 0.4300
vt 0.0900 0.4400
vt 0.8450 0.4400
vt 0.8450 0.4300
vt 0.8500 0.4400
vt 0.1700 0.4000
vt 0.1750 0.3900
vt 0.1750 0.4000
vt 0.6650 0.4000
vt 0.6700 0.3900
vt 0.6700 0.4000
vt 0.7400 0.4000
vt 0.7400 0.3900
vt 0.7450 0.4000
vt 0.4350 0.3900
vt 0.4350 0.3800
vt 0.4400 0.3900
vt 0.3900 0.3500
vt 0.3930 0.3460
vt 0.3950 0.3600
vt 0.2100 0.3500
vt 0.2150 0.3400
vt 0.2150 0.3500
vt 0.7750 0.3300
vt 0.7750 0.3200
vt 0.7800 0.3200
vt 0.1200 0.3031
vt 0.1250 0.3000
vt 0.1250 0.3100
vt 0.7800 0.2900
vt 0.7850 0.2900
vt 0.7850 0.3000
vt 0.9250 0.3000
vt 0.9250 0.2900
vt 0.9300 0.3000
vt 0.9750 0.2600
vt 0.9750 0.2500
vt 0.9800 0.2500
vt 0.6050 0.2300
vt 0.6050 0.2200
vt 0.6100 0.2200
vt 0.2900 0.2228
vt 0.2950 0.2100
vt 0.2950 0.2200
vt 0.4200 0.2200
vt 0.4200 0.2100
vt 0.4250 0.2100
vt 0.9900 0.2100
vt 0.9900 0.2000
vt 0.9950 0.2000
vt 0.6150 0.1500
vt 0.6200 0.1400
vt 0.6200 0.1500
vt 0.7400 0.1500
vt 0.7450 0.1400
vt 0.7450 0.1500
vt 0.9800 0.1100
vt 0.9850 0.1000
vt 0.9850 0.1100
vt 0.5850 0.7400
vt 0.5800 0.7351
vt 0.5850 0.7300
vt 0.2350 0.1900
vt 0.2300 0.1846
vt 0.2350 0.1800
vn -0.0542 0.9722 -0.2280
vn -0.3323 0.9275 0.1713
vn 0.4301 0.8956 0.1136
vn -0.6296 0.6252 -0.4612
vn 0.4971 0.7647 -0.4101
vn -0.0216 0.7324 -0.6806
vn 0.1846 0.7028 0.6870
vn -0.5768 0.6146 0.5381
vn 0.7835 0.4599 0.4178
vn -0.9321 0.3010 0.2017
vn 0.9276 0.3091 -0.2098
vn 0.4465 0.2668 -0.8541
vn -0.4035 0.2160 0.8891
vn -0.1550 0.2148 -0.9643
vn 0.1471 0.1880 0.9711
vn -0.9531 -0.0512 -0.2982
vn 0.5107 -0.1676 0.8433
vn 0.7093 -0.1468 -0.6894
vn -0.6212 -0.1078 -0.7762
vn -0.6806 -0.2714 0.6805
vn 0.8761 -0.2196 0.4292
vn 0.8637 -0.5037 -0.0151
vn -0.1333 -0.5256 0.8402
vn 0.1729 -0.5952 -0.7848
vn -0.2423 -0.4881 -0.8385
vn -0.8643 -0.4720 0.1738
vn 0.2873 -0.8199 0.4953
vn -0.5765 -0.6840 -0.4469
vn 0.6034 -0.7145 -0.3541
vn -0.4994 -0.8479 0.1778
vn 0.0620 -0.9918 -0.1114
usemtl 01___Default
s 1
f 1/1/1 3/2/2 2/3/3
f 1/4/1 6/5/4 3/6/2
f 1/7/1 2/8/3 4/9/5
f 1/10/1 4/11/5 7/12/6
f 1/13/1 7/14/6 6/15/4
f 3/16/2 8/17/7 2/18/3
f 3/19/2 5/20/8 8/21/7
f 2/22/3 9/23/9 4/24/5
f 3/25/2 6/26/4 10/27/10
f 3/28/2 10/29/10 5/30/8
f 8/31/7 9/32/9 2/33/3
f 9/34/9 11/35/11 4/36/5
f 4/37/5 13/38/12 7/39/6
f 5/40/8 12/41/13 8/42/7
f 4/43/5 11/44/11 13/45/12
f 13/46/12 14/47/14 7/48/6
f 8/49/7 12/50/13 16/51/15
f 8/52/7 16/53/15 9/54/9
f 6/55/4 15/56/16 10/57/10
f 16/58/15 17/59/17 9/60/9
f 11/61/11 19/62/18 13/63/12
f 14/64/14 20/65/19 6/66/4
f 6/67/4 20/68/19 15/69/16
f 5/70/8 18/71/20 12/72/13
f 10/73/10 18/74/20 5/75/8
f 17/76/17 21/77/21 9/78/9
f 11/79/11 22/80/22 19/81/18
f 9/82/9 21/83/21 11/84/11
f 11/85/11 21/86/21 22/87/22
f 12/88/13 25/89/23 16/90/15
f 13/91/12 23/92/24 14/93/14
f 14/94/14 26/95/25 20/96/19
f 13/97/12 19/98/18 23/99/24
f 23/100/24 26/101/25 14/102/14
f 10/103/10 24/104/26 18/105/20
f 18/106/20 25/107/23 12/108/13
f 25/109/23 17/110/17 16/111/15
f 15/112/16 24/113/26 10/114/10
f 17/115/17 30/116/27 21/117/21
f 26/118/25 27/119/28 20/120/19
f 20/121/19 27/122/28 15/123/16
f 19/124/18 28/125/29 23/126/24
f 22/127/22 28/128/29 19/129/18
f 30/130/27 22/131/22 21/132/21
f 15/133/16 27/134/28 24/135/26
f 25/136/23 30/137/27 17/138/17
f 27/139/28 29/140/30 24/141/26
f 24/142/26 29/143/30 18/144/20
f 18/145/20 29/146/30 25/147/23
f 26/148/25 23/149/24 27/150/28
f 22/151/22 31/152/31 28/153/29
f 28/154/29 31/155/31 23/156/24
f 25/157/23 29/158/30 30/159/27
f 23/160/24 31/161/31 27/162/28
f 27/163/28 31/164/31 29/165/30
f 29/166/30 31/167/31 30/168/27
f 6/169/4 7/170/6 14/171/14
f 22/172/22 30/173/27 31/174/31
