# Blender v2.77 (sub 0) OBJ File: ''
# www.blender.org
mtllib water3.mtl
g default
v -0.117632 0.078599 0.000000
v -0.138756 0.027600 0.000000
v -0.138756 -0.027600 0.000000
v -0.117632 -0.078599 0.000000
v -0.128194 0.054140 -0.025499
v -0.138756 0.000000 -0.027600
v -0.128194 -0.054140 -0.025499
v -0.053100 -0.130706 -0.010562
v -0.072616 0.117632 -0.030079
v -0.108678 0.078599 -0.045016
v -0.128194 0.027600 -0.053100
v -0.128194 -0.027600 -0.053100
v -0.092423 -0.100038 -0.038283
v -0.108678 0.054140 -0.072616
v -0.117632 0.000000 -0.078599
v -0.108678 -0.054140 -0.072616
v -0.038283 0.130706 -0.038283
v -0.083178 0.078599 -0.083178
v -0.098115 0.027600 -0.098116
v -0.098115 -0.027600 -0.098116
v -0.083178 -0.078599 -0.083178
v -0.055578 -0.117632 -0.055578
v -0.019516 -0.138756 -0.019516
v -0.072616 0.054140 -0.108678
v -0.078599 0.000000 -0.117632
v -0.072616 -0.054140 -0.108678
v -0.030079 0.117632 -0.072616
v -0.045016 0.078599 -0.108678
v -0.053100 0.027600 -0.128194
v -0.053100 -0.027600 -0.128194
v -0.038283 -0.100038 -0.092423
v -0.005385 0.138756 -0.027070
v -0.025499 0.054140 -0.128194
v -0.027600 0.000000 -0.138756
v -0.025499 -0.054140 -0.128194
v -0.010562 -0.130706 -0.053100
v 0.000000 0.078599 -0.117632
v 0.000000 0.027600 -0.138756
v 0.000000 -0.027600 -0.138756
v 0.000000 -0.078599 -0.117632
v 0.025499 0.054140 -0.128194
v 0.027600 0.000000 -0.138756
v 0.025499 -0.054140 -0.128194
v 0.015334 -0.117632 -0.077089
v 0.020719 0.130706 -0.050019
v 0.038283 0.100038 -0.092423
v 0.053100 0.027600 -0.128194
v 0.053100 -0.027600 -0.128194
v 0.045016 -0.078599 -0.108678
v 0.072616 0.054140 -0.108678
v 0.078599 0.000000 -0.117632
v 0.072616 -0.054140 -0.108678
v 0.055578 0.117632 -0.055578
v 0.083178 0.078599 -0.083178
v 0.098116 0.027600 -0.098115
v 0.098116 -0.027600 -0.098115
v 0.083178 -0.078599 -0.083178
v 0.055578 -0.117632 -0.055578
v 0.019516 -0.138756 -0.019516
v 0.108678 0.054140 -0.072616
v 0.117632 0.000000 -0.078599
v 0.108678 -0.054140 -0.072616
v 0.050019 0.130706 -0.020719
v 0.092423 0.100038 -0.038283
v 0.128194 0.027600 -0.053100
v 0.128194 -0.027600 -0.053100
v 0.108678 -0.078599 -0.045016
v 0.128194 0.054140 -0.025499
v 0.138756 0.000000 -0.027600
v 0.128194 -0.054140 -0.025499
v 0.077089 -0.117632 -0.015334
v 0.117632 0.078599 0.000000
v 0.138756 0.027600 0.000000
v 0.138756 -0.027600 0.000000
v 0.117632 -0.078599 0.000000
v 0.027070 0.138756 0.005385
v 0.128194 0.054140 0.025499
v 0.138756 0.000000 0.027600
v 0.128194 -0.054140 0.025499
v 0.053100 -0.130706 0.010562
v 0.072616 0.117632 0.030079
v 0.108678 0.078599 0.045016
v 0.128194 0.027600 0.053100
v 0.128194 -0.027600 0.053100
v 0.092423 -0.100038 0.038283
v 0.108678 0.054140 0.072616
v 0.117632 0.000000 0.078599
v 0.108678 -0.054140 0.072616
v 0.038283 0.130706 0.038283
v 0.083178 0.078599 0.083178
v 0.098116 0.027600 0.098115
v 0.098116 -0.027600 0.098115
v 0.083178 -0.078599 0.083178
v 0.055578 -0.117632 0.055578
v 0.019516 -0.138756 0.019516
v 0.072616 0.054140 0.108678
v 0.078599 0.000000 0.117632
v 0.072616 -0.054140 0.108678
v 0.030079 0.117632 0.072616
v 0.045016 0.078599 0.108678
v 0.053100 0.027600 0.128194
v 0.053100 -0.027600 0.128194
v 0.038283 -0.100038 0.092423
v 0.025499 0.054140 0.128194
v 0.027600 0.000000 0.138756
v 0.025499 -0.054140 0.128194
v 0.010562 -0.130706 0.053100
v 0.000000 0.078599 0.117632
v 0.000000 0.027600 0.138756
v 0.000000 -0.027600 0.138756
v 0.000000 -0.078599 0.117632
v -0.015334 0.117632 0.077089
v -0.025499 0.054140 0.128194
v -0.027600 0.000000 0.138756
v -0.025499 -0.054140 0.128194
v -0.015334 -0.117632 0.077089
v -0.045016 0.078599 0.108678
v -0.053100 0.027600 0.128194
v -0.053100 -0.027600 0.128194
v -0.045016 -0.078599 0.108678
v -0.072616 0.054140 0.108678
v -0.078599 0.000000 0.117632
v -0.072616 -0.054140 0.108678
v -0.019516 0.138756 0.019516
v -0.055578 0.117632 0.055578
v -0.083178 0.078599 0.083178
v -0.098115 0.027600 0.098115
v -0.098115 -0.027600 0.098115
v -0.083178 -0.078599 0.083178
v -0.055578 -0.117632 0.055578
v -0.019516 -0.138756 0.019516
v -0.108678 0.054140 0.072616
v -0.117632 0.000000 0.078599
v -0.108678 -0.054140 0.072616
v -0.108678 0.078599 0.045016
v -0.128194 0.027600 0.053100
v -0.128194 -0.027600 0.053100
v -0.108678 -0.078599 0.045016
v -0.077089 0.117632 0.015334
v -0.128194 0.054140 0.025499
v -0.138756 0.000000 0.027600
v -0.128194 -0.054140 0.025499
v -0.077089 -0.117632 0.015334
vn -0.3421 0.9391 -0.0337
vn -0.9291 -0.3698 0.0000
vn -0.9238 0.3826 0.0156
vn -1.0000 0.0000 -0.0000
vn -0.9626 -0.1915 -0.1915
vn -0.7987 -0.5639 -0.2101
vn -0.6613 0.7385 -0.1315
vn -0.8310 0.5312 -0.1653
vn -0.5630 -0.8194 -0.1079
vn -0.9612 0.1988 -0.1912
vn -0.8482 0.3964 -0.3513
vn -0.9239 0.0000 -0.3827
vn -0.8584 -0.3698 -0.3556
vn -0.8161 -0.1915 -0.5453
vn -0.3587 0.9334 -0.0136
vn -0.7133 -0.5639 -0.4162
vn -0.5936 0.7002 -0.3966
vn -0.5479 -0.7054 -0.4497
vn -0.8149 0.1988 -0.5445
vn -0.2331 -0.9724 -0.0000
vn -0.6492 0.3964 -0.6492
vn -0.2887 -0.9236 -0.2523
vn -0.7071 0.0000 -0.7071
vn -0.6570 -0.3698 -0.6570
vn -0.5453 -0.1915 -0.8161
vn -0.4162 -0.5639 -0.7133
vn -0.3565 0.7669 -0.5336
vn -0.4497 -0.7054 -0.5479
vn -0.5445 0.1988 -0.8149
vn -0.2157 -0.8379 -0.5014
vn -0.3513 0.3964 -0.8482
vn -0.2523 -0.9236 -0.2887
vn -0.3827 0.0000 -0.9239
vn -0.2161 0.9742 -0.0655
vn -0.3556 -0.3698 -0.8584
vn 0.6931 0.7208 -0.0041
vn -0.1393 0.7002 -0.7002
vn -0.1912 0.1988 -0.9612
vn 0.7002 0.7002 -0.1393
vn -0.0000 0.0000 -1.0000
vn 0.1951 -0.1951 -0.9612
vn -0.0156 -0.3826 -0.9238
vn -0.0617 0.9178 -0.3922
vn 0.0000 0.3964 -0.9181
vn -0.0526 0.7987 -0.5994
vn 0.1431 -0.9257 -0.3501
vn 0.1912 0.1988 -0.9612
vn 0.7002 0.7002 0.1393
vn 0.0000 1.0000 0.0000
vn 0.5481 0.1951 -0.8134
vn 0.3827 0.0000 -0.9239
vn 0.5481 -0.1951 -0.8134
vn 0.1599 0.9741 -0.1599
vn 0.3391 -0.3826 -0.8594
vn 0.2312 0.8313 -0.5055
vn 0.3215 -0.7313 -0.6015
vn 0.3262 0.5229 -0.7875
vn 0.4497 0.7054 -0.5479
vn 0.7455 0.6323 -0.2109
vn 0.7071 0.0000 -0.7071
vn 0.0000 -1.0000 -0.0000
vn 0.5417 -0.1951 -0.8176
vn 0.2941 0.9094 -0.2941
vn 0.6422 -0.3826 -0.6642
vn 0.7045 -0.5312 -0.4707
vn 0.5479 0.7054 -0.4497
vn 0.6422 0.3826 -0.6642
vn 0.8176 0.1951 -0.5417
vn 0.5055 0.8313 -0.2312
vn 0.6015 -0.7313 -0.3215
vn 0.7875 0.5229 -0.3262
vn -0.2058 0.7054 -0.6783
vn 0.9239 0.0000 -0.3827
vn 0.8134 -0.1951 -0.5481
vn 0.8475 -0.3826 -0.3679
vn 0.8310 -0.5312 -0.1653
vn 0.5994 0.7987 0.0526
vn 0.3501 -0.9257 -0.1431
vn 0.9612 0.1988 -0.1912
vn 0.9181 0.3964 0.0000
vn 1.0000 0.0000 0.0000
vn 0.9612 -0.1951 -0.1951
vn 0.3922 0.9178 0.0617
vn 0.9238 -0.3826 -0.0156
vn 0.7987 -0.5639 0.2101
vn 0.6844 -0.7278 0.0431
vn 0.9612 0.1988 0.1912
vn 0.1393 0.7002 -0.7002
vn 0.5014 -0.8379 0.2157
vn 0.8482 0.3964 0.3513
vn 0.2887 -0.9236 0.2523
vn 0.9239 0.0000 0.3827
vn 0.0655 0.9742 0.2161
vn 0.8584 -0.3698 0.3556
vn 0.7133 -0.5639 0.4162
vn 0.5336 0.7669 0.3565
vn 0.8149 0.1988 0.5445
vn 0.8161 -0.1915 0.5453
vn 0.6492 0.3964 0.6492
vn 0.2523 -0.9236 0.2887
vn 0.7071 0.0000 0.7071
vn 0.6570 -0.3698 0.6570
vn 0.4162 -0.5639 0.7133
vn 0.3966 0.7002 0.5936
vn 0.4497 -0.7054 0.5479
vn 0.5445 0.1988 0.8149
vn 0.0000 -0.9724 0.2331
vn 0.5453 -0.1915 0.8161
vn 0.3827 0.0000 0.9239
vn 0.3556 -0.3698 0.8584
vn 0.3513 0.3964 0.8482
vn 0.2101 -0.5639 0.7987
vn 0.1315 0.7385 0.6613
vn 0.1653 0.5312 0.8310
vn 0.1079 -0.8194 0.5630
vn 0.1876 0.1951 0.9627
vn 0.1915 -0.1915 0.9626
vn 0.0337 0.9391 0.3421
vn 0.0000 -0.3698 0.9291
vn -0.1653 -0.5312 0.8310
vn -0.1420 0.6857 0.7139
vn -0.1420 -0.6857 0.7139
vn 0.0156 0.3826 0.9238
vn -0.1951 0.1951 0.9612
vn -0.1915 -0.1915 0.9626
vn -0.3556 -0.3698 0.8584
vn -0.3215 -0.7313 0.6015
vn -0.4707 0.5312 0.7045
vn -0.3391 0.3826 0.8594
vn -0.5481 0.1951 0.8134
vn -0.3827 0.0000 0.9239
vn -0.5481 -0.1951 0.8134
vn -0.1873 0.9177 0.3503
vn -0.4707 -0.5312 0.7045
vn -0.3966 0.7002 0.5936
vn -0.5417 -0.1951 0.8176
vn -0.6422 0.3826 0.6642
vn -0.8176 0.1951 0.5417
vn -0.6422 -0.3826 0.6642
vn -0.3503 0.9177 0.1873
vn -0.7045 -0.5312 0.4707
vn -0.5936 0.7002 0.3966
vn -0.6015 -0.7313 0.3215
vn -0.8475 0.3826 0.3679
vn -0.9627 0.1951 0.1876
vn -0.9239 0.0000 0.3827
vn -0.8584 -0.3698 0.3556
vn -0.8310 -0.5312 0.1653
vn -0.7139 0.6857 0.1420
vn -0.9238 0.3826 -0.0156
vn -0.9626 -0.1915 0.1915
vn -0.9181 -0.3964 0.0000
vn -0.3501 -0.9257 0.1431
vn -0.9626 0.1915 -0.1915
vn -0.9612 -0.1988 -0.1912
vn -0.7190 0.6914 -0.0708
vn -0.6844 -0.7278 -0.0431
vn -0.8584 0.3698 -0.3556
vn -0.7875 -0.5229 -0.3262
vn -0.8149 -0.1988 -0.5445
vn -0.7045 0.5312 -0.4707
vn -0.5014 -0.8379 -0.2157
vn -0.8161 0.1915 -0.5453
vn -0.6570 0.3698 -0.6570
vn -0.6492 -0.3964 -0.6492
vn -0.4100 0.7719 -0.4859
vn -0.5445 -0.1988 -0.8149
vn -0.6713 0.6250 -0.3984
vn -0.4707 0.5312 -0.7045
vn -0.5453 0.1915 -0.8161
vn -0.3556 0.3698 -0.8584
vn -0.3262 -0.5229 -0.7875
vn -0.1807 -0.3764 -0.9087
vn -0.0980 0.9220 -0.3745
vn -0.2101 -0.5639 -0.7987
vn -0.0431 -0.7278 -0.6844
vn -0.1079 -0.8194 -0.5630
vn -0.1653 0.5312 -0.8310
vn -0.1951 0.0000 -0.9808
vn -0.1915 -0.1915 -0.9626
vn 0.0000 0.3698 -0.9291
vn 0.0770 0.7782 -0.6233
vn 0.1653 -0.5312 -0.8310
vn 0.1420 -0.6857 -0.7139
vn 0.2101 0.5639 -0.7987
vn 0.0000 -0.9724 -0.2331
vn 0.1951 0.0000 -0.9808
vn 0.1876 -0.1951 -0.9627
vn 0.3679 -0.3826 -0.8475
vn 0.3556 0.3698 -0.8584
vn 0.4707 -0.5312 -0.7045
vn 0.3966 -0.7002 -0.5936
vn 0.3485 0.3560 -0.8670
vn 0.1873 -0.9177 -0.3503
vn 0.5417 0.1951 -0.8176
vn 0.6642 -0.3826 -0.6422
vn 0.8176 -0.1951 -0.5417
vn 0.5936 -0.7002 -0.3966
vn 0.7133 0.5639 -0.4162
vn 0.3503 -0.9177 -0.1873
vn 0.9068 0.1915 -0.3756
vn 0.8594 -0.3826 -0.3391
vn 0.9808 0.0000 -0.1951
vn 0.9627 -0.1951 -0.1876
vn 0.7139 -0.6857 -0.1420
vn 0.7987 0.5639 -0.2101
vn 0.2331 -0.9724 0.0000
vn 0.9291 0.3698 0.0000
vn 0.9238 -0.3826 0.0156
vn 0.6233 0.7782 -0.0770
vn 0.9626 -0.1915 0.1915
vn 0.9612 -0.1988 0.1912
vn 0.3745 0.9220 0.0980
vn 0.5630 -0.8194 0.1079
vn 0.8310 0.5312 0.1653
vn 0.9808 0.0000 0.1951
vn 0.8584 0.3698 0.3556
vn 0.7875 -0.5229 0.3262
vn 0.8149 -0.1988 0.5445
vn 0.3984 0.6250 0.6713
vn 0.5479 -0.7054 0.4497
vn 0.7045 0.5312 0.4707
vn 0.8161 0.1915 0.5453
vn 0.6570 0.3698 0.6570
vn 0.6492 -0.3964 0.6492
vn 0.4859 0.7719 0.4100
vn 0.5445 -0.1988 0.8149
vn 0.4707 0.5312 0.7045
vn 0.2157 -0.8379 0.5014
vn 0.5453 0.1915 0.8161
vn 0.0136 0.9334 0.3587
vn 0.3556 0.3698 0.8584
vn 0.3262 -0.5229 0.7875
vn 0.0708 0.6914 0.7190
vn 0.0431 -0.7278 0.6844
vn 0.1912 -0.1988 0.9612
vn 0.1951 0.1951 0.9612
vn -0.1431 -0.9257 0.3501
vn -0.0000 0.0000 1.0000
vn 0.0000 -0.3964 0.9181
vn -0.0156 0.3826 0.9238
vn -0.1653 0.5312 0.8310
vn -0.1912 -0.1988 0.9612
vn -0.3513 -0.3964 0.8482
vn -0.3215 0.7313 0.6015
vn -0.3679 0.3826 0.8475
vn -0.1876 0.1951 0.9627
vn -0.3966 -0.7002 0.5936
vn -0.1873 -0.9177 0.3503
vn -0.6642 -0.3826 0.6422
vn -0.6642 0.3826 0.6422
vn -0.5417 0.1951 0.8176
vn -0.7071 0.0000 0.7071
vn -0.8176 -0.1951 0.5417
vn -0.8134 -0.1951 0.5481
vn -0.7045 0.5312 0.4707
vn -0.5936 -0.7002 0.3966
vn -0.8594 0.3826 0.3391
vn -0.8134 0.1951 0.5481
vn -0.3503 -0.9177 0.1873
vn -0.8482 -0.3964 0.3513
vn -0.6015 0.7313 0.3215
vn -0.9612 -0.1988 0.1912
vn -0.7139 -0.6857 0.1420
vn -0.8310 0.5312 0.1653
vn -0.9612 0.1951 0.1951

s 1
g pTorus2
usemtl Material.001
f 139//1 124//1 9//1
f 3//2 7//2 142//2
f 1//3 5//3 2//3
f 2//4 6//4 3//4
f 3//5 6//5 12//5
f 4//6 7//6 13//6
f 139//7 10//7 1//7
f 1//8 10//8 5//8
f 143//9 13//9 8//9
f 2//10 5//10 11//10
f 10//11 14//11 5//11
f 6//12 11//12 15//12
f 12//13 16//13 7//13
f 15//14 20//14 12//14
f 124//15 17//15 9//15
f 13//16 16//16 21//16
f 9//17 18//17 10//17
f 13//18 21//18 22//18
f 11//19 14//19 19//19
f 8//20 23//20 131//20
f 18//21 24//21 14//21
f 22//22 23//22 8//22
f 15//23 19//23 25//23
f 20//24 26//24 16//24
f 20//25 25//25 30//25
f 21//26 26//26 31//26
f 17//27 28//27 18//27
f 21//28 31//28 22//28
f 19//29 24//29 29//29
f 22//30 31//30 36//30
f 28//31 33//31 24//31
f 22//32 36//32 23//32
f 29//33 34//33 25//33
f 17//34 124//34 32//34
f 30//35 35//35 26//35
f 30//36 40//36 35//36
f 27//37 37//37 28//37
f 29//38 33//38 38//38
f 29//39 39//39 34//39
f 38//40 42//40 39//40
f 39//41 42//41 43//41
f 39//42 43//42 40//42
f 32//43 45//43 27//43
f 37//44 41//44 33//44
f 45//45 46//45 37//45
f 36//46 44//46 59//46
f 38//47 41//47 47//47
f 38//48 48//48 42//48
f 32//49 124//49 76//49
f 47//50 50//50 51//50
f 47//51 51//51 48//51
f 48//52 51//52 52//52
f 76//53 63//53 45//53
f 48//54 52//54 49//54
f 45//55 53//55 46//55
f 49//56 58//56 44//56
f 46//57 50//57 41//57
f 46//58 53//58 54//58
f 46//59 55//59 50//59
f 51//60 55//60 56//60
f 131//61 23//61 59//61
f 51//62 56//62 52//62
f 63//63 53//63 45//63
f 131//61 59//61 95//61
f 56//64 62//64 57//64
f 57//65 62//65 67//65
f 54//66 53//66 64//66
f 54//67 60//67 55//67
f 55//68 60//68 61//68
f 63//69 64//69 53//69
f 58//70 67//70 71//70
f 64//71 68//71 60//71
f 61//72 68//72 65//72
f 61//73 65//73 66//73
f 61//74 66//74 62//74
f 66//37 73//37 69//37
f 66//75 70//75 67//75
f 67//76 70//76 75//76
f 64//77 63//77 72//77
f 71//78 80//78 59//78
f 65//79 68//79 73//79
f 72//80 77//80 68//80
f 69//81 73//81 74//81
f 69//82 74//82 70//82
f 76//83 81//83 63//83
f 74//84 79//84 75//84
f 75//85 79//85 85//85
f 72//48 81//48 82//48
f 75//86 85//86 71//86
f 73//87 77//87 83//87
f 74//88 83//88 78//88
f 85//89 94//89 80//89
f 82//90 86//90 77//90
f 80//91 94//91 95//91
f 78//92 83//92 87//92
f 76//93 124//93 89//93
f 84//94 88//94 79//94
f 85//95 88//95 93//95
f 82//96 89//96 90//96
f 83//97 86//97 91//97
f 87//98 92//98 84//98
f 90//99 96//99 86//99
f 95//100 94//100 107//100
f 87//101 91//101 97//101
f 92//102 98//102 88//102
f 93//103 98//103 103//103
f 90//104 99//104 100//104
f 93//105 103//105 94//105
f 91//106 96//106 101//106
f 107//107 131//107 95//107
f 97//108 102//108 92//108
f 101//109 105//109 97//109
f 102//110 106//110 98//110
f 100//111 104//111 96//111
f 103//112 106//112 111//112
f 100//113 112//113 108//113
f 100//114 108//114 104//114
f 103//115 116//115 107//115
f 101//116 104//116 105//116
f 102//117 105//117 110//117
f 99//118 124//118 112//118
f 110//119 115//119 106//119
f 111//120 115//120 120//120
f 108//121 112//121 117//121
f 111//122 120//122 116//122
f 108//123 113//123 109//123
f 109//124 113//124 114//124
f 110//125 114//125 119//125
f 119//126 123//126 115//126
f 120//127 130//127 116//127
f 117//128 126//128 121//128
f 117//129 121//129 118//129
f 118//130 121//130 122//130
f 118//131 122//131 119//131
f 119//132 122//132 123//132
f 112//133 124//133 125//133
f 120//134 123//134 129//134
f 117//135 125//135 126//135
f 122//136 128//136 123//136
f 126//137 132//137 127//137
f 127//138 132//138 133//138
f 128//139 134//139 129//139
f 125//140 124//140 139//140
f 129//141 134//141 138//141
f 126//142 125//142 135//142
f 130//143 138//143 143//143
f 135//144 140//144 136//144
f 136//145 140//145 141//145
f 136//146 141//146 137//146
f 137//147 142//147 134//147
f 142//148 4//148 138//148
f 135//149 139//149 1//149
f 140//150 1//150 2//150
f 141//4 2//4 3//4
f 141//151 3//151 137//151
f 4//152 142//152 7//152
f 143//153 8//153 131//153
f 2//154 11//154 6//154
f 3//155 12//155 7//155
f 139//156 9//156 10//156
f 143//157 4//157 13//157
f 11//158 5//158 14//158
f 6//12 15//12 12//12
f 13//159 7//159 16//159
f 12//160 20//160 16//160
f 10//161 18//161 14//161
f 13//162 22//162 8//162
f 15//163 11//163 19//163
f 19//164 14//164 24//164
f 15//23 25//23 20//23
f 21//165 16//165 26//165
f 9//166 17//166 18//166
f 20//167 30//167 26//167
f 17//168 27//168 28//168
f 18//169 28//169 24//169
f 19//170 29//170 25//170
f 29//171 24//171 33//171
f 30//33 25//33 34//33
f 31//172 26//172 35//172
f 30//173 39//173 40//173
f 17//174 32//174 27//174
f 31//175 35//175 40//175
f 31//176 40//176 44//176
f 36//177 31//177 44//177
f 28//178 37//178 33//178
f 29//179 38//179 39//179
f 30//180 34//180 39//180
f 38//181 33//181 41//181
f 27//182 45//182 37//182
f 40//183 43//183 49//183
f 40//184 49//184 44//184
f 37//185 46//185 41//185
f 23//186 36//186 59//186
f 38//187 47//187 48//187
f 43//188 42//188 48//188
f 32//53 76//53 45//53
f 43//189 48//189 49//189
f 47//190 41//190 50//190
f 49//191 52//191 57//191
f 49//192 57//192 58//192
f 46//193 54//193 55//193
f 59//194 44//194 58//194
f 51//195 50//195 55//195
f 52//196 56//196 57//196
f 56//60 55//60 61//60
f 56//197 61//197 62//197
f 57//198 67//198 58//198
f 54//199 64//199 60//199
f 59//200 58//200 71//200
f 61//201 60//201 68//201
f 62//202 66//202 67//202
f 66//203 65//203 73//203
f 66//204 69//204 70//204
f 67//205 75//205 71//205
f 64//206 72//206 68//206
f 95//207 59//207 80//207
f 73//208 68//208 77//208
f 70//209 74//209 75//209
f 72//210 63//210 81//210
f 74//211 78//211 84//211
f 74//212 84//212 79//212
f 76//213 89//213 81//213
f 71//214 85//214 80//214
f 72//215 82//215 77//215
f 74//216 73//216 83//216
f 83//217 77//217 86//217
f 78//92 87//92 84//92
f 85//218 79//218 88//218
f 84//219 92//219 88//219
f 82//220 81//220 89//220
f 85//221 93//221 94//221
f 82//222 90//222 86//222
f 87//223 83//223 91//223
f 91//224 86//224 96//224
f 87//101 97//101 92//101
f 93//225 88//225 98//225
f 90//226 89//226 99//226
f 92//227 102//227 98//227
f 90//228 100//228 96//228
f 107//229 94//229 103//229
f 97//230 91//230 101//230
f 89//231 124//231 99//231
f 101//232 96//232 104//232
f 102//109 97//109 105//109
f 103//233 98//233 106//233
f 100//234 99//234 112//234
f 103//235 111//235 116//235
f 102//236 110//236 106//236
f 105//237 104//237 109//237
f 107//238 116//238 131//238
f 105//239 109//239 114//239
f 110//239 105//239 114//239
f 111//240 106//240 115//240
f 104//241 108//241 109//241
f 108//242 117//242 113//242
f 110//243 119//243 115//243
f 114//131 118//131 119//131
f 120//244 115//244 123//244
f 117//245 112//245 125//245
f 113//246 117//246 118//246
f 114//247 113//247 118//247
f 120//248 129//248 130//248
f 116//249 130//249 131//249
f 123//250 128//250 129//250
f 121//251 126//251 127//251
f 122//252 121//252 127//252
f 122//253 127//253 128//253
f 128//253 127//253 133//253
f 128//254 133//254 134//254
f 134//255 133//255 137//255
f 132//256 126//256 135//256
f 129//257 138//257 130//257
f 132//258 135//258 136//258
f 133//259 132//259 136//259
f 130//260 143//260 131//260
f 133//146 136//146 137//146
f 138//261 134//261 142//261
f 125//262 139//262 135//262
f 137//263 3//263 142//263
f 138//264 4//264 143//264
f 140//265 135//265 1//265
f 141//266 140//266 2//266
